<svg width="56" height="56" viewBox="0 0 56 56" fill="none" xmlns="http://www.w3.org/2000/svg">
<path d="M13.4062 4C8.23353 4 4 8.23343 4 13.4062V42.5953C4 47.768 8.23343 52 13.4062 52H42.5953C47.7681 52 52 47.7681 52 42.5953V13.4062C52 8.23353 47.7681 4 42.5953 4H13.4062ZM15.772 11.921C18.2522 11.921 19.7799 13.5492 19.827 15.6894C19.827 17.7824 18.2521 19.4564 15.724 19.4564H15.6775C13.2445 19.4564 11.672 17.7825 11.672 15.6894C11.672 13.5492 13.2921 11.921 15.772 11.921H15.772ZM37.1452 21.9242C41.9151 21.9242 45.4908 25.0418 45.4908 31.7414V44.2485H38.2418V32.58C38.2418 29.6478 37.1927 27.6474 34.5694 27.6474C32.5667 27.6474 31.373 28.9957 30.8489 30.2982C30.6575 30.7642 30.6104 31.415 30.6104 32.0669V44.2485H23.3615C23.3615 44.2485 23.4566 24.4824 23.3615 22.4357H30.6119V25.5246C31.5752 24.0384 33.2983 21.9242 37.1452 21.9242V21.9242ZM12.0996 22.4373H19.3485V44.2485H12.0996V22.4373V22.4373Z" fill="#A1A1AA"/>
</svg>
