<svg width="56" height="56" viewBox="0 0 56 56" fill="none" xmlns="http://www.w3.org/2000/svg">
<path d="M52 13.6261C50.2348 14.4079 48.3386 14.9361 46.3451 15.1748C48.402 13.9447 49.9409 12.0087 50.6745 9.72791C48.742 10.8752 46.627 11.6827 44.4214 12.1154C42.9382 10.5326 40.9736 9.48351 38.8327 9.13098C36.6918 8.77845 34.4943 9.14222 32.5815 10.1658C30.6686 11.1894 29.1474 12.8155 28.254 14.7918C27.3606 16.768 27.145 18.9838 27.6406 21.095C23.7249 20.8985 19.8942 19.8813 16.3973 18.1094C12.9003 16.3374 9.81522 13.8504 7.3422 10.8097C6.49661 12.2676 6.01039 13.9578 6.01039 15.758C6.00945 17.3785 6.40874 18.9742 7.17283 20.4036C7.93691 21.8329 9.04218 23.0516 10.3906 23.9516C8.8268 23.9019 7.29754 23.4795 5.93006 22.7198V22.8466C5.9299 25.1194 6.71653 27.3224 8.15647 29.0816C9.59641 30.8408 11.601 32.0479 13.83 32.498C12.3794 32.8904 10.8585 32.9482 9.38219 32.6671C10.0111 34.6227 11.2361 36.3329 12.8858 37.5581C14.5355 38.7834 16.5273 39.4624 18.5822 39.5C15.0938 42.237 10.7856 43.7217 6.35074 43.7151C5.56515 43.7153 4.78022 43.6695 4 43.5778C8.50167 46.4707 13.7419 48.0059 19.0938 48C37.2106 48 47.1146 33.003 47.1146 19.9963C47.1146 19.5738 47.104 19.147 47.085 18.7244C49.0115 17.332 50.6743 15.6077 51.9958 13.6325L52 13.6261V13.6261Z" fill="#A1A1AA"/>
</svg>
